<svg width="181" height="228" viewBox="0 0 181 228" fill="none" xmlns="http://www.w3.org/2000/svg">
<path fill-rule="evenodd" clip-rule="evenodd" d="M85.3997 21.3966C85.3478 21.4016 85.2983 21.4016 85.2463 21.4016C83.9498 21.4016 82.8587 20.3896 82.7795 19.0758L81.7898 2.74584C81.7082 1.38007 82.7474 0.20728 84.1107 0.12563C85.4839 0.0563517 86.6492 1.08068 86.7309 2.44646L87.7206 18.7764C87.8022 20.1422 86.763 21.315 85.3997 21.3966ZM97.7635 38.8178C98.0431 38.9217 98.3301 38.9687 98.6121 38.9687C99.6216 38.9687 100.572 38.3452 100.935 37.3407L111.575 8.1447C112.042 6.86058 111.382 5.44037 110.098 4.97274C108.808 4.50511 107.391 5.1682 106.926 6.44986L96.2864 35.6458C95.8187 36.9299 96.4793 38.3501 97.7635 38.8178ZM72.6324 34.5149C71.7936 34.5149 70.9747 34.0869 70.5095 33.3149L60.1177 15.9928C59.415 14.82 59.7936 13.3009 60.9664 12.5982C62.1392 11.898 63.6583 12.2741 64.361 13.4468L74.7528 30.7665C75.4555 31.9393 75.0769 33.4584 73.9042 34.1611C73.5058 34.4011 73.0654 34.5149 72.6324 34.5149ZM147.483 151L179.895 204.196C180.608 205.363 180.239 206.885 179.071 207.595C177.904 208.31 176.379 207.939 175.672 206.771L144.558 155.706L104.958 180.314L124.727 213.11C125.432 214.283 125.056 215.802 123.886 216.507C123.485 216.75 123.045 216.864 122.609 216.864C121.773 216.864 120.954 216.441 120.489 215.669L99.458 180.782C98.7602 179.622 99.1215 178.117 100.27 177.402L106.032 173.822L90.4097 145.076C89.3779 147.602 88.4352 149.671 87.641 151.049L73.0133 176.38L77.029 179.218C77.5758 179.604 77.942 180.196 78.0459 180.861C78.1474 181.524 77.9767 182.2 77.5709 182.737L43.9213 227.023C43.4364 227.661 42.6966 228 41.9493 228C41.4669 228 40.9844 227.859 40.5489 227.575L1.95088 201.348C0.835004 200.588 0.533148 199.076 1.27047 197.946L32.1984 150.688C32.567 150.126 33.146 149.738 33.8066 149.612C34.4648 149.49 35.1477 149.636 35.697 150.022L39.4875 152.702C41.9098 140.783 42.751 130.06 41.9493 120.836C41.2937 110.796 37.6071 101.792 30.3378 92.4493C30.1423 92.2142 29.7167 91.7392 29.1971 91.1602C25.2582 86.761 23.2837 84.3066 22.9398 82.5252C22.5192 80.6868 22.9547 78.074 24.9217 76.5721C26.3839 75.4612 29.0561 74.6521 33.5023 77.1412C35.4693 78.2843 37.2953 79.5462 38.9827 80.8427L31.6763 67.2591C29.5534 64.2554 30.2264 60.3164 33.2821 58.0228C36.3551 55.7144 40.7592 56.1993 43.3102 59.1164C43.3819 59.1981 43.4512 59.2847 43.5106 59.3762L48.7906 67.3358L43.8792 52.5993C42.9217 50.8426 42.7213 48.7296 43.3374 46.7576C43.9782 44.704 45.443 43.029 47.3555 42.1605C49.3374 41.1634 51.7844 41.0199 53.9939 41.7993C56.0426 42.5242 57.7028 44.0063 58.5465 45.862L65.9098 66.0294L65.2071 56.469C64.544 52.5548 67.3795 48.6974 71.6872 47.9156C76.0888 47.5123 79.9214 50.5729 80.2851 54.5787L84.1424 104.286L88.319 97.326C89.9 94.8369 94.6109 87.4291 101.858 91.7763L103.095 92.5186C105.431 93.9215 106.485 96.6407 105.651 99.1347C103.941 105.048 97.8373 125.178 92.7231 139.069C92.7329 139.084 92.7441 139.097 92.7559 139.11C92.7622 139.117 92.7686 139.124 92.7751 139.13L92.7843 139.14L92.7846 139.14L92.7852 139.141C92.8126 139.169 92.84 139.197 92.8592 139.232L110.238 171.207L134.337 156.23L124.015 130.191C121.343 123.657 123.216 116.157 128.681 111.553L148.982 94.7157C149.858 93.9611 149.828 92.8625 149.497 92.093C149.331 91.7169 148.675 90.4798 147.109 90.6679C143.633 91.0768 137.563 94.127 135.527 95.1501L135.527 95.1501L135.5 95.1635L126.185 99.8225C125.158 100.34 123.908 100.075 123.176 99.1916C122.441 98.3083 122.411 97.0365 123.104 96.1186L146.859 64.6958C147.641 63.7754 147.641 62.4171 146.953 61.6129C146.367 60.8806 145.687 60.7395 145.209 60.7395C144.415 60.7395 143.623 61.1329 143.096 61.7936L124.539 85.0489C123.691 86.1177 122.134 86.2959 121.063 85.4398C120.293 84.8237 120.009 83.8464 120.217 82.9458C120.135 82.4955 120.133 82.0303 120.318 81.5775L134.669 46.4434C134.938 45.8422 134.948 45.3572 134.733 44.9119C134.436 44.2982 133.751 43.8059 132.897 43.5931C131.843 43.3531 130.252 44.0533 129.77 45.0207L114.481 79.7961C113.935 81.0456 112.48 81.6171 111.223 81.0654C110.218 80.6249 109.686 79.5981 109.788 78.5639C109.788 78.5154 109.781 78.4682 109.775 78.4211C109.766 78.3551 109.757 78.2892 109.766 78.22L113.724 49.024C113.747 48.8706 113.779 48.7197 113.828 48.5737C113.992 48.0814 113.809 47.6484 113.685 47.4356C113.432 46.9976 112.99 46.6884 112.475 46.5844C111.354 46.337 110.218 46.9432 109.874 47.6508L102.251 79.133C102.187 79.3928 102.078 79.6278 101.945 79.8431C101.94 79.8513 101.938 79.86 101.935 79.8686C101.931 79.8806 101.927 79.8924 101.92 79.9025C101.757 80.1524 101.546 80.3627 101.309 80.5359C101.263 80.5691 101.212 80.594 101.16 80.619C101.127 80.635 101.093 80.6511 101.061 80.6695C100.878 80.7734 100.693 80.8625 100.49 80.9169C100.469 80.9227 100.45 80.9327 100.432 80.9428C100.41 80.9544 100.389 80.966 100.364 80.9713C100.325 80.9793 100.287 80.9766 100.25 80.9739C100.217 80.9716 100.184 80.9692 100.151 80.9738C100.113 80.9794 100.075 80.9881 100.038 80.9969C99.9756 81.0113 99.9137 81.0258 99.8489 81.0258C99.7593 81.0258 99.6684 81.0109 99.5781 80.9962L99.5482 80.9913C99.5263 80.9878 99.5045 80.9843 99.4827 80.9812L99.4701 80.9795L99.4607 80.9784C99.4524 80.9774 99.4442 80.9766 99.436 80.9758L99.4203 80.9744C99.3926 80.972 99.3651 80.9696 99.3367 80.9639C99.3326 80.9631 99.3285 80.9625 99.3245 80.962L99.32 80.9615L99.3126 80.9609L99.3008 80.9602L99.2983 80.9601C99.2874 80.9595 99.2764 80.9588 99.265 80.9565C99.1947 80.94 99.1344 80.9065 99.0736 80.8726L99.0736 80.8726C99.0338 80.8504 98.9938 80.8281 98.9507 80.8105C98.9242 80.8 98.8977 80.7898 98.8712 80.7796C98.7225 80.7222 98.5762 80.6658 98.446 80.5755C98.3506 80.5094 98.2729 80.4257 98.1947 80.3415L98.1946 80.3413L98.1945 80.3412L98.1544 80.2982L98.1399 80.2829C98.1307 80.2731 98.1214 80.2634 98.112 80.2538C98.0878 80.2296 98.0633 80.2059 98.0388 80.1822C97.9481 80.0944 97.858 80.0072 97.7878 79.9C97.7073 79.7751 97.6579 79.6371 97.6076 79.4967L97.5933 79.4569C97.5865 79.438 97.5796 79.4191 97.5726 79.4002C97.5556 79.3541 97.5329 79.3113 97.5102 79.2686C97.477 79.2058 97.4438 79.1433 97.4291 79.0711L93.4678 60.5144C93.4332 60.3461 93.4134 60.1729 93.4134 59.9997C93.4134 59.6014 92.9977 59.01 92.4262 59.01C91.9066 59.01 91.4439 59.3515 91.1965 59.7523L91.6864 86.4295C91.7111 87.7953 90.6225 88.9235 89.2567 88.9483H89.2097C87.8637 88.9483 86.7602 87.8695 86.7354 86.5186L86.2406 59.302C86.2356 59.0224 86.2777 58.7428 86.3668 58.4756C87.2328 55.8752 89.7243 54.0616 92.4262 54.0616C95.5437 54.0616 98.1936 56.615 98.3544 59.7028L99.9998 67.4175L105.112 46.3049C105.134 46.2084 105.164 46.1119 105.198 46.0178C106.364 42.9102 110.09 40.9852 113.497 41.7498C115.352 42.1209 117 43.2937 117.965 44.9564C118.846 46.4682 119.071 48.2545 118.601 49.8925L116.985 61.8208L125.294 42.9226C126.85 39.805 130.653 38.0285 134.033 38.7807C136.393 39.3671 138.249 40.8145 139.189 42.7617C140.05 44.5407 140.058 46.5448 139.211 48.403L130.571 69.5577L139.231 58.7032C140.713 56.85 142.891 55.7886 145.209 55.7886H145.211C147.386 55.7886 149.41 56.7585 150.766 58.4533C152.971 61.0241 152.973 65.156 150.714 67.7936L133.427 90.6679C137.546 88.5994 142.722 86.2019 146.565 85.7491C149.816 85.4151 152.75 87.1272 154.044 90.1359C155.336 93.1347 154.601 96.4155 152.174 98.4963L131.858 115.348C128.053 118.55 126.744 123.776 128.609 128.343L138.613 153.573L144.063 150.186C144.625 149.839 145.303 149.725 145.944 149.881C146.587 150.032 147.139 150.435 147.483 151ZM68.9531 173.513L83.3532 148.577C87.7202 140.996 97.7681 108.604 100.935 97.6675C101.091 97.2023 100.752 96.8807 100.557 96.7644L99.3194 96.0221L99.3172 96.0207C97.9295 95.1896 96.2098 94.1597 92.535 99.9314L84.4047 113.485C83.8505 114.408 82.7668 114.866 81.7152 114.618C80.6661 114.371 79.8991 113.475 79.815 112.402L75.3614 54.9993C75.2896 54.2199 74.7329 53.683 74.4088 53.4331C73.815 52.9779 73.0653 52.7527 72.3626 52.8195C71.1948 53.0422 69.8612 54.2966 70.1259 55.8851L72.1325 83.0794C72.1368 83.1376 72.1255 83.1909 72.1143 83.2445C72.1059 83.2843 72.0975 83.3242 72.0954 83.3664C72.1572 84.4278 71.5634 85.4497 70.5119 85.8332C69.2278 86.3008 67.8076 85.6402 67.3399 84.3561L53.9791 47.7374C53.7613 47.2747 53.1403 46.7477 52.351 46.4682C51.4059 46.1341 50.3667 46.191 49.4933 46.6265C48.5456 47.057 48.1992 47.8141 48.0706 48.2298C47.843 48.9548 47.9197 49.7168 48.2784 50.3156C48.37 50.4715 48.4467 50.6348 48.5036 50.8055L59.2838 83.1462L59.6005 83.6237C60.3552 84.7619 60.0434 86.2984 58.9053 87.053C58.4921 87.3252 58.0319 87.4142 57.5716 87.4192C57.5349 87.424 57.4981 87.4323 57.4613 87.4405C57.404 87.4534 57.3468 87.4662 57.2896 87.4662C56.2529 87.4662 55.2879 86.8105 54.9415 85.7738L54.7956 85.3334L39.4998 62.2711C38.6438 61.3977 37.2236 61.2591 36.2586 61.9791C35.5312 62.5235 35.019 63.4587 35.7638 64.4534C35.838 64.5548 35.9048 64.6587 35.9567 64.7651L51.7918 94.2085C51.8294 94.2776 51.846 94.3504 51.8626 94.4235C51.8734 94.4708 51.8842 94.5181 51.9007 94.5648C51.9123 94.598 51.9243 94.6308 51.9363 94.6635C51.9806 94.7844 52.0242 94.9034 52.0417 95.0299C52.0602 95.1634 52.0531 95.2917 52.0459 95.422L52.0459 95.4231L52.0435 95.4667L52.0417 95.5025L52.0392 95.5597V95.5597C52.0332 95.696 52.0273 95.8306 51.9947 95.9652C51.962 96.0941 51.9072 96.2112 51.8515 96.3304C51.8398 96.3553 51.8281 96.3804 51.8166 96.4056C51.8044 96.4314 51.7925 96.457 51.7807 96.4826C51.7278 96.5969 51.6762 96.7087 51.6013 96.8139C51.5213 96.9267 51.4193 97.0191 51.3148 97.1136L51.2881 97.1378L51.25 97.1726C51.2147 97.205 51.184 97.2409 51.1534 97.2767C51.1068 97.3312 51.0603 97.3857 50.9976 97.4275C50.9792 97.4406 50.9587 97.4468 50.9379 97.453C50.9196 97.4585 50.9012 97.4641 50.8838 97.4745C50.8668 97.4858 50.8529 97.4998 50.839 97.5137C50.8226 97.5301 50.8063 97.5465 50.7848 97.5586C50.5745 97.6724 50.3518 97.7442 50.1292 97.7912C50.1082 97.7949 50.0879 97.7967 50.0676 97.7986L50.0673 97.7986C50.0469 97.8005 50.0265 97.8023 50.0054 97.806C49.9787 97.8101 49.9519 97.8146 49.9251 97.819C49.8225 97.8359 49.7189 97.853 49.617 97.853C49.5354 97.853 49.455 97.8384 49.3742 97.8237L49.3357 97.8168C49.3141 97.813 49.2924 97.8093 49.2706 97.806C49.2459 97.8021 49.2211 97.7997 49.1964 97.7973C49.1593 97.7938 49.1221 97.7902 49.085 97.7813C48.8104 97.7219 48.5481 97.6205 48.3081 97.4695C48.2928 97.4605 48.2784 97.4502 48.2644 97.4392C48.2539 97.431 48.2436 97.4224 48.2333 97.4138C48.2197 97.4025 48.2061 97.3912 48.1918 97.3805C47.9914 97.2369 47.8133 97.0613 47.6599 96.8559C47.6475 96.8374 47.6308 96.8237 47.6141 96.8101C47.5974 96.7965 47.5807 96.7829 47.5683 96.7644C47.504 96.6703 41.0487 87.246 31.0553 81.434C29.0017 80.2835 28.0516 80.4122 27.9328 80.5012C27.8041 80.6002 27.6953 81.1099 27.772 81.4192C27.7942 81.5033 27.8091 81.5849 27.8215 81.6691C28.1994 82.6152 31.7192 86.5477 32.8855 87.8507L32.8912 87.8571C33.4627 88.4955 33.9279 89.0175 34.2 89.3441C42.1572 99.5726 46.1729 109.437 46.8929 120.458C47.7786 130.661 46.7766 142.577 43.9139 155.822L68.9531 173.513ZM11.0217 126.062C16.752 126.062 21.4134 121.4 21.4134 115.67C21.4134 109.94 16.752 105.278 11.0217 105.278C5.29134 105.278 0.629883 109.94 0.629883 115.67C0.629883 121.403 5.29134 126.062 11.0217 126.062ZM11.0217 110.227C14.0229 110.227 16.465 112.669 16.465 115.67C16.465 118.671 14.0229 121.113 11.0217 121.113C8.02042 121.113 5.57835 118.671 5.57835 115.67C5.57835 112.669 8.02042 110.227 11.0217 110.227ZM157.038 112.013C157.159 111.347 157.548 110.759 158.114 110.385C158.679 110.014 159.371 109.89 160.039 110.041L171.347 112.669L173.368 101.139C173.606 99.7927 174.892 98.8921 176.233 99.1296C177.577 99.3671 178.477 100.649 178.242 101.995L175.768 116.098C175.649 116.766 175.261 117.357 174.694 117.733C174.128 118.109 173.435 118.233 172.769 118.08L161.45 115.452L159.683 125.262C159.468 126.46 158.426 127.299 157.251 127.299C157.105 127.299 156.959 127.286 156.811 127.259C155.465 127.017 154.569 125.73 154.811 124.387L157.038 112.013ZM9.28962 59.2574C12.5705 59.2574 15.2278 56.6 15.2278 53.3192C15.2278 50.0384 12.5705 47.3811 9.28962 47.3811C6.00879 47.3811 3.35146 50.0384 3.35146 53.3192C3.35146 56.6 6.01126 59.2574 9.28962 59.2574ZM163.187 38.2263C163.187 40.9592 160.971 43.1748 158.238 43.1748C155.505 43.1748 153.29 40.9592 153.29 38.2263C153.29 35.4933 155.505 33.2778 158.238 33.2778C160.971 33.2778 163.187 35.4933 163.187 38.2263Z" fill="#024E23"/>
</svg>
