<svg width="207" height="184" viewBox="0 0 207 184" fill="none" xmlns="http://www.w3.org/2000/svg">
<path fill-rule="evenodd" clip-rule="evenodd" d="M206.268 14.4942C206.342 14.7861 206.354 15.0929 206.317 15.3973C206.31 15.462 206.29 15.5212 206.271 15.5811C206.258 15.6196 206.245 15.6584 206.236 15.6991C206.224 15.7446 206.214 15.7905 206.204 15.8365C206.181 15.9431 206.158 16.0499 206.11 16.1519L193.976 41.7899V166.024C193.976 175.572 186.204 183.343 176.656 183.343H112.326C102.776 183.343 95.0066 175.572 95.0066 166.024V72.0028H92.5323C85.7109 72.0028 80.1612 77.5525 80.1612 84.3739V140.044C80.1612 148.892 73.3917 156.201 64.6923 157.228C63.3438 164.314 59.7933 170.589 54.3153 175.319C48.6122 180.481 41.0807 183.343 33.1507 183.343C25.4485 183.343 18.1346 180.622 12.4587 175.703C11.8921 175.478 11.4567 175.069 11.1894 174.54C4.71932 168.461 0.985706 160.016 0.985706 151.178C0.985706 145.68 2.25993 140.7 4.65994 136.293C2.25993 131.56 0.985706 126.592 0.985706 121.487C0.985706 115.379 2.66818 109.5 5.83768 104.358C2.50983 99.1278 0.738281 93.1105 0.738281 86.8482C0.738281 69.1129 15.168 54.6831 32.9033 54.6831C50.6386 54.6831 65.0684 69.1129 65.0684 86.8482C65.0684 92.9595 63.3859 98.8358 60.2139 103.977C63.5516 109.238 65.3158 115.24 65.3158 121.487C65.3158 126.607 64.0366 131.59 61.6217 136.335C64.0415 141.106 65.3158 146.074 65.3158 151.178C65.3158 151.368 65.311 151.564 65.3061 151.76C65.3032 151.878 65.3003 151.996 65.2984 152.113C70.957 150.894 75.2127 145.953 75.2127 140.044V84.3739C75.2127 74.8234 82.9818 67.0543 92.5323 67.0543H95.0066V17.5696C95.0066 8.01909 102.778 0.25 112.326 0.25H176.656C185.385 0.25 192.608 6.74981 193.79 15.1647L203.252 12.7053C203.29 12.6944 203.327 12.6955 203.365 12.6966C203.396 12.6975 203.426 12.6985 203.457 12.6929C203.66 12.6583 203.86 12.6434 204.066 12.6608C204.177 12.6682 204.284 12.683 204.392 12.7078C204.573 12.7474 204.744 12.8092 204.915 12.8909L204.935 12.9004C205.036 12.949 205.136 12.9964 205.231 13.0591C205.253 13.0738 205.276 13.0839 205.3 13.094C205.328 13.106 205.357 13.1181 205.382 13.1383C205.449 13.1905 205.5 13.2528 205.551 13.3155C205.581 13.3509 205.61 13.3864 205.642 13.4203C205.662 13.4414 205.683 13.462 205.704 13.4825C205.766 13.5441 205.828 13.6053 205.879 13.6777C206.028 13.8855 206.132 14.1107 206.209 14.3507C206.215 14.3724 206.226 14.3912 206.237 14.4102C206.249 14.4301 206.262 14.4503 206.268 14.4744C206.268 14.4769 206.268 14.4792 206.267 14.4814C206.267 14.4855 206.266 14.4893 206.268 14.4942ZM60.1199 86.8482C60.1199 71.8419 47.9095 59.6316 32.9033 59.6316C17.8971 59.6316 5.68675 71.8419 5.68675 86.8482C5.68675 91.5319 6.85706 96.0523 9.0616 100.098C15.262 93.2119 23.8526 89.3224 33.1507 89.3224C42.3079 89.3224 50.7871 93.0758 56.9405 99.7315C59.0188 95.7802 60.1199 91.3909 60.1199 86.8482ZM32.6559 158.601C24.6567 158.601 17.7709 164.381 16.0711 172.274C20.8142 176.22 26.8192 178.395 33.1507 178.395C39.3116 178.395 45.1607 176.336 49.8221 172.61C48.4588 164.675 41.3503 158.601 33.1507 158.601H32.9033H32.6559ZM33.1507 153.652H33.3982C37.4213 153.652 40.5734 150.394 40.5734 146.23C40.5734 142.137 37.2431 138.807 33.1507 138.807C29.0584 138.807 25.728 142.137 25.728 146.23C25.728 150.394 28.8802 153.652 32.9033 153.652H33.1507ZM41.5656 155.389C47.3355 157.834 51.9203 162.686 53.9195 168.681C57.2869 164.737 59.4246 159.942 60.1421 154.563C60.3673 153.408 60.3673 152.324 60.3673 151.178C60.3673 146.482 59.1401 141.89 56.7203 137.533C51.846 129.18 42.8027 123.962 33.1507 123.962C23.4963 123.962 14.4554 129.18 9.55645 137.577C9.54655 137.592 9.53913 137.607 9.52923 137.622C7.11191 141.581 5.93417 146.015 5.93417 151.178C5.93417 157.428 8.16098 163.445 12.1049 168.278C14.2773 162.307 18.8521 157.579 24.5701 155.248C22.2369 153.007 20.7796 149.832 20.7796 146.23C20.7796 139.408 26.3293 133.859 33.1507 133.859C39.9722 133.859 45.5219 139.408 45.5219 146.23C45.5219 149.914 43.9928 153.14 41.5656 155.389ZM136.579 35.8146L160.905 47.8815L193.865 20.2542L192.123 20.707H192.12L136.579 35.8146ZM176.656 178.395C183.478 178.395 189.027 172.845 189.027 166.024V52.2435L173.2 85.6853C172.789 86.5513 171.916 87.0981 170.966 87.0981C170.904 87.0981 170.837 87.0956 170.773 87.0906C169.748 87.009 168.88 86.3063 168.593 85.3216L158.916 52.4192L122.711 34.4588L188.975 16.434C188.401 10.1445 183.097 5.19847 176.656 5.19847H112.326C105.505 5.19847 99.955 10.7482 99.955 17.5696V166.024C99.955 172.845 105.505 178.395 112.326 178.395H176.656ZM163.902 51.8279L171.51 77.7009L196.819 24.2525L163.902 51.8279ZM127.172 96.7451C117.46 96.7451 109.852 104.353 109.852 114.065V119.013C109.852 128.561 117.623 136.333 127.172 136.333H161.811C171.359 136.333 179.13 128.561 179.13 119.013V114.065C179.13 104.517 171.359 96.7451 161.811 96.7451H127.172ZM174.182 114.065V119.013C174.182 125.835 168.632 131.384 161.811 131.384H127.172C120.35 131.384 114.8 125.835 114.8 119.013V114.065C114.8 107.127 120.234 101.694 127.172 101.694H161.811C168.63 101.694 174.182 107.243 174.182 114.065ZM166.759 143.756H122.223C119.502 143.756 117.027 144.993 115.295 146.725C113.563 148.457 112.326 150.931 112.326 153.652C112.326 159.096 116.78 163.549 122.223 163.549H166.759C169.481 163.549 171.955 162.312 173.687 160.58C175.419 158.848 176.656 156.374 176.656 153.652C176.656 148.209 172.203 143.756 166.759 143.756Z" fill="#006171"/>
</svg>
