<svg width="169" height="204" viewBox="0 0 169 204" fill="none" xmlns="http://www.w3.org/2000/svg">
<path fill-rule="evenodd" clip-rule="evenodd" d="M128.895 133.148C127.527 133.148 126.421 134.254 126.421 135.623V166.55C126.421 173.372 120.872 178.922 114.05 178.922H67.9972C68.9795 175.713 69.5139 172.308 69.5139 168.777C69.5139 150.483 55.3192 135.536 37.3489 134.262V18.0965C37.3489 11.275 42.8986 5.72532 49.72 5.72532H114.05C120.872 5.72532 126.421 11.275 126.421 18.0965V31.4573C126.421 32.8231 127.527 33.9316 128.895 33.9316C130.264 33.9316 131.37 32.8231 131.37 31.4573V18.0965C131.37 8.54595 123.598 0.776855 114.05 0.776855H49.72C40.1695 0.776855 32.4004 8.54595 32.4004 18.0965V134.264C14.43 135.538 0.235352 150.483 0.235352 168.78C0.235352 187.911 15.7438 203.419 34.8746 203.419C48.5868 203.419 60.4038 195.43 66.0153 183.873H114.05C123.598 183.873 131.37 176.101 131.37 166.553V135.623C131.37 134.254 130.264 133.148 128.895 133.148ZM39.0808 184.118H37.3489V189.808C37.3489 191.174 36.2404 192.283 34.8746 192.283C33.5088 192.283 32.4004 191.174 32.4004 189.808V184.118H23.7406C22.3748 184.118 21.2663 183.009 21.2663 181.643C21.2663 180.278 22.3748 179.169 23.7406 179.169H39.0808C41.3645 179.169 43.0396 177.37 43.0396 175.21C43.0396 173.112 41.179 171.252 39.0808 171.252H30.1736C25.0346 171.252 21.2663 167.112 21.2663 162.344C21.2663 157.515 25.3439 153.437 30.1736 153.437H32.4004V147.994C32.4004 146.628 33.5088 145.52 34.8746 145.52C36.2404 145.52 37.3489 146.628 37.3489 147.994V153.437H43.0396C44.4054 153.437 45.5138 154.546 45.5138 155.911C45.5138 157.277 44.4054 158.386 43.0396 158.386H30.1736C28.0754 158.386 26.2148 160.246 26.2148 162.344C26.2148 164.504 27.8899 166.303 30.1736 166.303H39.0808C43.9105 166.303 47.9881 170.381 47.9881 175.21C47.9881 179.978 44.2198 184.118 39.0808 184.118ZM91.0399 13.1481C91.0399 11.7823 89.9339 10.6739 88.5656 10.6739H74.9573C73.5916 10.6739 72.4831 11.7823 72.4831 13.1481C72.4831 14.5139 73.5916 15.6223 74.9573 15.6223H88.5656C89.9339 15.6223 91.0399 14.5139 91.0399 13.1481ZM101.432 43.3336H123.7C125.068 43.3336 126.174 44.4421 126.174 45.8079C126.174 47.1736 125.068 48.2821 123.7 48.2821H101.432C97.1288 48.2821 93.7589 51.652 93.7589 55.9522V78.2203C93.7589 79.5861 92.6529 80.6945 91.2847 80.6945C89.9164 80.6945 88.8104 79.5861 88.8104 78.2203V55.9522C88.8104 48.8759 94.3552 43.3336 101.432 43.3336ZM123.7 57.9317H103.411V78.2204H123.7V57.9317ZM123.7 123.499H101.432C94.3552 123.499 88.8129 117.954 88.8104 110.88V88.6122C88.8104 87.2465 89.9164 86.138 91.2847 86.138C92.6529 86.138 93.7589 87.2465 93.7589 88.6122V110.88C93.7589 115.183 97.1313 118.55 101.432 118.55H123.7C125.068 118.55 126.174 119.656 126.174 121.025C126.174 122.393 125.068 123.499 123.7 123.499ZM123.583 88.4537H103.295V108.742H123.583V88.4537ZM163.782 88.6122C163.782 87.2465 164.888 86.138 166.256 86.138C167.622 86.138 168.73 87.2465 168.73 88.6122V110.88C168.73 117.957 163.186 123.499 156.112 123.499H133.844C132.475 123.499 131.369 122.393 131.369 121.025C131.369 119.656 132.475 118.55 133.844 118.55H156.112C160.414 118.55 163.782 115.181 163.782 110.88V88.6122ZM156.112 43.3336H133.844C132.475 43.3336 131.369 44.4421 131.369 45.8079C131.369 47.1736 132.475 48.2821 133.844 48.2821H156.112C160.412 48.2821 163.782 51.6495 163.782 55.9522V78.2203C163.782 79.5861 164.888 80.6945 166.256 80.6945C167.624 80.6945 168.73 79.5861 168.73 78.2203V55.9522C168.73 48.8759 163.186 43.3336 156.112 43.3336ZM133.933 57.9515H154.221V78.2402H133.933V57.9515ZM140.66 101.793H133.98V108.473H140.66V101.793ZM154.024 101.792V108.473H147.343V101.792H140.66V95.112H134.042V88.4315H140.722V95.112H147.343H154.024V101.792Z" fill="#35D2DA"/>
</svg>
